<svg width="20" height="20" viewBox="0 0 20 20" fill="none" xmlns="http://www.w3.org/2000/svg">
<path d="M10.0001 13.1242C8.2798 13.1242 6.8759 11.7203 6.8759 9.99999C6.8759 8.27968 8.2798 6.87577 10.0001 6.87577C11.7204 6.87577 13.1243 8.27968 13.1243 9.99999C13.1243 11.7203 11.7204 13.1242 10.0001 13.1242ZM19.3704 9.99999C19.3704 11.2937 19.3822 12.5758 19.3095 13.8672C19.2368 15.3672 18.8947 16.6984 17.7978 17.7953C16.6986 18.8945 15.3697 19.2344 13.8697 19.307C12.5759 19.3797 11.2939 19.368 10.0025 19.368C8.70871 19.368 7.42668 19.3797 6.13527 19.307C4.63527 19.2344 3.30402 18.8922 2.20714 17.7953C1.10792 16.6961 0.76808 15.3672 0.695424 13.8672C0.622767 12.5734 0.634486 11.2914 0.634486 9.99999C0.634486 8.70858 0.622767 7.42421 0.695424 6.1328C0.76808 4.6328 1.11027 3.30156 2.20714 2.20468C3.30636 1.10546 4.63527 0.765619 6.13527 0.692963C7.42902 0.620308 8.71105 0.632025 10.0025 0.632025C11.2962 0.632025 12.5782 0.620308 13.8697 0.692963C15.3697 0.765619 16.7009 1.10781 17.7978 2.20468C18.897 3.3039 19.2368 4.6328 19.3095 6.1328C19.3845 7.42421 19.3704 8.70624 19.3704 9.99999ZM10.0001 5.19296C7.33996 5.19296 5.19308 7.33984 5.19308 9.99999C5.19308 12.6601 7.33996 14.807 10.0001 14.807C12.6603 14.807 14.8072 12.6601 14.8072 9.99999C14.8072 7.33984 12.6603 5.19296 10.0001 5.19296ZM15.004 13.8812C14.3829 13.8812 13.8814 14.3828 13.8814 15.0039C13.8814 15.625 14.3829 16.1266 15.004 16.1266C15.6251 16.1266 16.1267 15.625 16.1267 15.0039C16.1269 14.8564 16.098 14.7103 16.0416 14.5741C15.9853 14.4378 15.9026 14.3139 15.7983 14.2096C15.694 14.1054 15.5702 14.0227 15.4339 13.9663C15.2976 13.91 15.1515 13.8811 15.004 13.8812Z" fill="black"/>
</svg>
